
<svg xmlns="http://www.w3.org/2000/svg" xmlns:xlink="http://www.w3.org/1999/xlink" version="1.1" id="Layer_1" x="0px" y="0px" viewBox="139 450.4 499.6 68.9" enable-background="new 139 450.4 499.6 68.9" xml:space="preserve">

<style>
	.logo {
		fill: #e3421a;	}
</style>

<path xmlns="http://www.w3.org/2000/svg" class="logo" d="M218.5,519.3H194h-2.2H153c-7.6,0-13.7-6.3-13.7-13.7v-18h15.9v6.5c0,5.2,4,9.2,9.2,9.2h18.2c4.9,0,9.2-4,9.2-9.2v-6.5h15.9  v17.3L218.5,519.3L218.5,519.3z M179.9,471.9c3.6,0,6.3,2.9,6.3,6.5v13c0,3.6-2.9,6.5-6.3,6.5h-12.8c-3.6,0-6.3-2.9-6.3-6.5v-13  c0-3.6,2.9-6.5,6.3-6.5H179.9L179.9,471.9z M191.6,475.5c0-5.2-4-9.2-9.2-9.2h-18.2c-4.9,0-9.2,4-9.2,9.2v6.5H139v-18  c0-7.6,6.1-13.7,13.7-13.7h41.1c7.6,0,13.7,6.3,13.7,13.7v18h-15.9V475.5L191.6,475.5z"/>

<path d="M239.4,475.7v24.7h-7.2v-24.7h-7.9v-6.5h23.1v6.5H239.4L239.4,475.7z M263.6,500.4V486c0-1.8-0.4-2.7-1.6-2.7  c-2,0-4.3,2.2-4.3,7.9v9.2h-7v-34.3h7v14.4c1.1-2,3.4-3.4,6.5-3.4c4.3,0,6.5,2.9,6.5,8.1v15.3H263.6L263.6,500.4z M295.5,490.5  l-13.5,0.2c0,2.9,0.7,4.7,3.8,4.7c2.5,0,4.5-0.9,6.1-2.5l3.4,4c-2.5,2.7-5.6,3.8-9.6,3.8c-3.1,0-5.6-0.9-7.4-2.2  c-2-1.8-3.1-4.7-3.1-9.2c0-3.8,0.7-7.2,2.9-9.6c1.6-1.6,4-2.9,7.9-2.9c7.4,0,9.6,4.7,9.6,11C295.7,488.7,295.7,489.4,295.5,490.5  L295.5,490.5z M285.8,482c-2.9,0-3.6,1.6-3.6,4h7C289,483.4,288.5,482,285.8,482L285.8,482z M328.9,488.7c-1.8,1.6-4.5,2-7.6,2h-4.5  v9.4h-7.2v-31h11.9c2.9,0,5.6,0.4,7.4,2c2,1.6,3.4,4,3.4,8.5C332.3,484.3,330.9,487.2,328.9,488.7L328.9,488.7z M323.7,476.2  c-0.7-0.4-1.6-0.7-2.9-0.7h-4v9h4.3c1.3,0,2.2-0.2,2.9-0.9c0.7-0.7,0.9-1.8,0.9-3.6C324.6,477.7,324.2,476.8,323.7,476.2  L323.7,476.2z M352.9,498.4c-1.8,1.8-4.3,2.7-7.6,2.7c-3.4,0-5.6-0.9-7.4-2.5c-2.2-2-3.1-4.9-3.1-9.4c0-4.7,0.9-7.4,3.1-9.6  c1.8-1.8,4.3-2.7,7.9-2.7c3.4,0,5.8,0.9,7.4,2.5c2.2,2,2.9,4.9,2.9,9.4C356.1,493.2,355.4,495.9,352.9,498.4L352.9,498.4z   M347.8,483.4c-0.4-0.4-1.1-0.9-2.2-0.9c-1.3,0-2,0.4-2.5,0.9c-0.9,0.9-1.1,3.1-1.1,5.6c0,2.7,0.4,4.5,1.1,5.2  c0.4,0.4,1.3,0.9,2.2,0.9c1.1,0,2-0.4,2.5-0.9c0.9-0.9,1.1-2.9,1.1-5.6C348.9,486.3,348.7,484.3,347.8,483.4L347.8,483.4z   M382.8,500.4H374l-4.7-8.3h-1.6v8.3h-7v-34.3h7v19.3h1.8l4.3-7.9h8.3l-7,11L382.8,500.4L382.8,500.4z M404.3,490.5l-13.5,0.2  c0,2.9,0.7,4.7,3.8,4.7c2.5,0,4.5-0.9,6.1-2.5l3.4,4c-2.5,2.7-5.6,3.8-9.6,3.8c-3.1,0-5.6-0.9-7.4-2.2c-2-1.8-3.1-4.7-3.1-9.2  c0-3.8,0.7-7.2,2.9-9.6c1.6-1.6,4-2.9,7.9-2.9c7.4,0,9.6,4.7,9.6,11C404.5,488.7,404.3,489.4,404.3,490.5L404.3,490.5z M394.4,482  c-2.9,0-3.6,1.6-3.6,4h7C397.8,483.4,397.4,482,394.4,482L394.4,482z M389,472.1l7.4-8.8l4.3,3.8l-7.9,8.5L389,472.1L389,472.1z   M420.9,475.1c-2.2,0-3.4,0.7-4,1.8c-0.7,1.1-1.1,3.4-1.1,8.1c0,4.7,0.4,6.7,1.3,8.1c0.7,0.9,1.6,1.6,3.4,1.6c2.5,0,4.5-1.1,6.3-3.1  l4.3,4.5c-2.7,3.4-6.3,4.9-10.8,4.9c-4,0-6.7-1.3-8.3-3.1c-2.9-2.9-3.6-7.9-3.6-12.6c0-5.2,0.7-9.9,3.6-13c2-2,4.9-3.4,9.2-3.4  c3.4,0,7,0.7,9.4,3.4l-4,4.9C425,475.7,422.9,475.1,420.9,475.1L420.9,475.1z M450.8,498.4c-1.8,1.8-4.3,2.7-7.6,2.7  s-5.6-0.9-7.4-2.5c-2.2-2-3.1-4.9-3.1-9.4c0-4.7,0.9-7.4,3.1-9.6c1.8-1.8,4.3-2.7,7.9-2.7c3.4,0,5.8,0.9,7.4,2.5  c2.2,2,2.9,4.9,2.9,9.4C453.9,493.2,453.2,495.9,450.8,498.4L450.8,498.4z M445.6,483.4c-0.4-0.4-1.1-0.9-2.2-0.9  c-1.3,0-2,0.4-2.5,0.9c-0.9,0.9-1.1,3.1-1.1,5.6c0,2.7,0.4,4.5,1.1,5.2c0.4,0.4,1.3,0.9,2.2,0.9c1.1,0,2-0.4,2.5-0.9  c0.9-0.9,1.1-2.9,1.1-5.6C446.7,486.3,446.5,484.3,445.6,483.4L445.6,483.4z M484.2,500.4v-14.1c0-1.8-0.2-2.9-1.6-2.9  c-2,0-4,2.2-4,7.6v9.2h-7V486c0-1.8-0.2-2.7-1.6-2.7c-2,0-4,2.2-4,7.6v9.2h-7v-22.9h6.5v3.4c1.3-2.5,3.6-4,6.7-4  c2.9,0,4.9,1.3,6.1,4.3c1.3-2.5,3.8-4.3,7-4.3c4.3,0,6.5,2.9,6.5,8.1V500h-7.6V500.4z M522.1,500.4v-14.1c0-1.8-0.2-2.9-1.6-2.9  c-2,0-4,2.2-4,7.6v9.2h-7V486c0-1.8-0.2-2.7-1.6-2.7c-2,0-4,2.2-4,7.6v9.2h-7v-22.9h6.5v3.4c1.3-2.5,3.6-4,6.7-4  c2.9,0,4.9,1.3,6.1,4.3c1.3-2.5,3.8-4.3,7-4.3c4.3,0,6.5,2.9,6.5,8.1V500h-7.6V500.4z M547.9,500.4v-3.6c-1.3,2.7-3.6,4-6.7,4  c-4.3,0-6.5-2.9-6.5-8.1v-15.3h7v14.4c0,1.6,0.4,2.7,1.8,2.7c2,0,4-2.5,4-7.6v-9.4h7v22.9H547.9L547.9,500.4z M573.1,500.4v-14.1  c0-1.8-0.4-2.7-1.8-2.7c-2.2,0-4.3,2.5-4.3,7.9v9.2h-7v-22.9h6.5v3.6c1.3-2.5,3.6-4,6.7-4c4.5,0,6.7,2.9,6.7,8.1v15.3h-7V500.4z   M589.2,474.2c-2.2,0-4-1.8-4-4.3c0-2.5,1.8-4.3,4-4.3c2.5,0,4,1.8,4,4.3C593.3,472.4,591.5,474.2,589.2,474.2L589.2,474.2z   M592.6,500.4h-7v-22.9h7V500.4L592.6,500.4z M607.2,491.2c0,2.5,0,3.1,2.5,3.1c0.9,0,2,0,2.9-0.2l0.4,5.8c-1.6,0.4-3.1,0.7-4.7,0.7  c-6.3,0-8.1-3.1-8.1-8.8V484h-3.4V478h3.4v-6.3l7-0.7v7h5.6v6.1h-5.6V491.2L607.2,491.2z M632.3,499.1c-2.2,7.6-5.6,11.9-11.2,11.9  c-1.8,0-3.6-0.4-4.5-1.1l2-5.6c0.7,0.4,1.6,0.4,2.2,0.4c2.2,0,3.4-1.3,4.5-5.2h-3.1l-6.7-22h7.4l4.3,17.5l4-17.5h7.4L632.3,499.1  L632.3,499.1z" class="logo"/>

</svg>